<?xml version="1.0" encoding="utf-8"?>
<!-- Generator: Adobe Illustrator 19.2.1, SVG Export Plug-In . SVG Version: 6.00 Build 0)  -->
<svg version="1.1" id="layer" xmlns="http://www.w3.org/2000/svg" xmlns:xlink="http://www.w3.org/1999/xlink" x="0px" y="0px"
	 viewBox="0 0 652 652" style="enable-background:new 0 0 652 652;" xml:space="preserve">
<style type="text/css">
	.st0{fill:#181D26;}
	.st1{fill:#FCB400;}
	.st2{fill:#18BFFF;}
	.st3{fill:#F82B60;}
	.st4{opacity:0.25;}
</style>
<path class="st0" d="M280,334.5l-10.1-26.7c-0.4-1.1-2-1.1-2.4,0l-10,26.7c-0.3,0.8,0.3,1.7,1.2,1.7h20.1c0.6,0,1.1-0.5,1.2-1.1
	C280.1,334.9,280,334.7,280,334.5L280,334.5z M284.6,349.5h-31.8c-0.5,0-1,0.3-1.2,0.8l-6.3,16.6c-0.2,0.5-0.6,0.8-1.2,0.8h-13.8
	c-0.9,0-1.5-0.9-1.2-1.8l31.7-77.8c0.2-0.5,0.7-0.8,1.2-0.8h13.2c0.5,0,1,0.3,1.2,0.8l31.7,77.8c0.4,0.8-0.3,1.8-1.2,1.8h-13.8
	c-0.5,0-1-0.3-1.2-0.8l-6.3-16.6C285.6,349.8,285.2,349.5,284.6,349.5L284.6,349.5z M314.7,314.7h11.8c0.7,0,1.2,0.6,1.3,1.3v50.6
	c0,0.7-0.6,1.2-1.3,1.2h-11.8c-0.7,0-1.3-0.6-1.3-1.2V316C313.5,315.3,314,314.7,314.7,314.7L314.7,314.7z M370.8,327
	c0,0.7-0.6,1.3-1.3,1.3h-0.3c-5.9,0-10.1,1.3-12.9,4.1c-2.7,2.8-4.1,7.3-4.1,13.6v20.4c0,0.7-0.6,1.2-1.3,1.2h-11.7
	c-0.7,0-1.2-0.6-1.3-1.2V316c0-0.7,0.6-1.2,1.3-1.3h11.5c0.7,0,1.3,0.6,1.3,1.3v10h0.2c1.2-3.8,3.5-7.1,6.6-9.5
	c3.3-2.3,7.2-3.5,11.2-3.4h0.6L370.8,327L370.8,327L370.8,327z M403.1,326.5c-0.7,0-1.2,0.6-1.3,1.2v21c-0.2,1.6,0.3,3.3,1.3,4.6
	c0.8,0.9,2.3,1.3,4.4,1.3h1.2c0.7,0,1.2,0.6,1.3,1.2v10.5c0,0.7-0.6,1.2-1.3,1.3h-5c-5.2,0-9.2-1.4-12-3.9
	c-2.8-2.7-4.2-6.5-4.2-11.8v-24.3c0-0.7-0.6-1.2-1.3-1.2h-7.4c-0.7,0-1.2-0.6-1.3-1.3V316c0-0.7,0.6-1.2,1.3-1.3h7.4
	c0.7,0,1.2-0.6,1.3-1.2v-18.8c0-0.7,0.6-1.2,1.3-1.2h11.8c0.7,0,1.2,0.6,1.3,1.2v18.8c0,0.7,0.6,1.2,1.3,1.2h8.5
	c0.7,0,1.2,0.6,1.3,1.3v9.3c0,0.7-0.6,1.3-1.3,1.3H403.1z M457.1,352c2.7-2.9,4.2-6.8,4-10.8c0.1-4-1.3-7.9-4-10.8
	c-6-5.5-15.1-5.5-21.1,0c-2.8,2.9-4.2,6.8-4,10.8c-0.2,4,1.3,7.9,4,10.8c2.8,2.8,6.6,4.3,10.5,4.1
	C450.5,356.3,454.3,354.8,457.1,352L457.1,352z M429.9,366.1c-4-2.3-7.3-5.6-9.3-9.7c-4.5-9.6-4.5-20.8,0-30.5
	c2.1-4,5.4-7.4,9.3-9.7c4-2.2,8.5-3.4,13.1-3.4c3.7-0.1,7.5,0.8,10.8,2.4c3,1.6,5.4,3.9,7.2,6.8h0.2v-6.2c0-0.7,0.6-1.2,1.3-1.3
	h11.7c0.7,0,1.3,0.6,1.3,1.3v50.5c0,0.7-0.6,1.3-1.3,1.3h-11.6c-0.7,0-1.3-0.6-1.3-1.3v-6.2h-0.2c-1.7,2.9-4.2,5.2-7.2,6.8
	c-3.3,1.7-7,2.5-10.8,2.4C438.4,369.5,433.9,368.4,429.9,366.1L429.9,366.1z M523.9,352c2.8-2.9,4.2-6.8,4-10.8
	c0.2-4-1.3-7.9-4-10.8c-6-5.5-15.1-5.5-21.1,0c-2.8,2.9-4.2,6.8-4,10.8c-0.1,4,1.3,7.9,4,10.8c2.8,2.8,6.6,4.3,10.5,4.1
	C517.3,356.3,521.1,354.8,523.9,352L523.9,352z M506.2,367.1c-3-1.6-5.4-3.9-7.1-6.8h-0.3v6.2c0,0.7-0.6,1.2-1.3,1.3h-11.8
	c-0.7,0-1.2-0.6-1.3-1.3v-77.8c0-0.7,0.6-1.2,1.3-1.2h11.8c0.7,0,1.2,0.6,1.3,1.2v33.6h0.3c1.7-2.9,4.2-5.2,7.1-6.8
	c3.4-1.7,7-2.5,10.8-2.4c4.6-0.1,9.1,1.1,13.1,3.4c4,2.2,7.2,5.6,9.4,9.7c2.4,4.7,3.6,10,3.4,15.2c0.1,5.3-1.1,10.5-3.4,15.2
	c-2.1,4.1-5.4,7.4-9.3,9.7c-4,2.2-8.5,3.4-13.1,3.4C513.3,369.6,509.6,368.7,506.2,367.1L506.2,367.1z M562.8,367.7H551
	c-0.7,0-1.3-0.6-1.3-1.2v-77.8c0-0.7,0.6-1.2,1.3-1.3h11.8c0.7,0,1.2,0.6,1.3,1.2v77.8c0,0.5-0.3,1-0.7,1.2
	C563.1,367.7,562.9,367.7,562.8,367.7L562.8,367.7z M590.6,327c-2,1.6-3.5,4-4,6.5c-0.2,0.8,0.5,1.5,1.3,1.5h22.5
	c0.8,0,1.4-0.7,1.3-1.4c-0.3-2.5-1.6-4.8-3.5-6.4c-2.4-1.9-5.5-3-8.7-2.8C596.2,324.2,593.1,325.1,590.6,327L590.6,327z
	 M619.3,320.4c4.6,4.9,6.9,11.9,6.9,20.9v1.5c0,0.7-0.6,1.2-1.3,1.3h-37.5c-0.8,0-1.4,0.7-1.3,1.5c0.5,3.1,2.1,6,4.5,8
	c3,2.3,6.7,3.5,10.4,3.3c5.6-0.1,11-2.3,15.1-6.3c0.6-0.5,1.5-0.4,1.9,0.2l5.7,8.1c0.3,0.5,0.3,1.2-0.2,1.7
	c-2.8,2.4-5.9,4.5-9.2,6.1c-4.2,1.8-8.7,2.8-13.2,2.7c-5.3,0.1-10.6-1.1-15.3-3.5c-4.2-2.2-7.8-5.7-10.1-9.9
	c-2.5-4.5-3.7-9.6-3.6-14.7c-0.1-5.1,1.1-10.3,3.5-14.8c2.2-4.2,5.6-7.6,9.8-10c4.5-2.4,9.6-3.7,14.7-3.6
	C608.3,313,614.7,315.5,619.3,320.4L619.3,320.4z M329.4,296c0.1,7.7-9.2,11.7-14.7,6.4c-5.5-5.4-1.8-14.8,5.9-14.9h0
	C325.4,287.4,329.3,291.2,329.4,296L329.4,296z M329.4,296"/>
<path class="st1" d="M96.4,261.4l-58.6,24.3c-3.3,1.3-3.2,6,0.1,7.3l58.9,23.3c5.2,2.1,10.9,2.1,16.1,0l58.9-23.3
	c3.3-1.3,3.3-5.9,0-7.3l-58.6-24.3C107.8,259.2,101.8,259.2,96.4,261.4"/>
<path class="st2" d="M110,329v58.3c0,2.8,2.8,4.7,5.4,3.7l65.6-25.5c1.5-0.6,2.5-2,2.5-3.7v-58.3c0-2.8-2.8-4.7-5.4-3.7l-65.6,25.5
	C111,326,110,327.4,110,329"/>
<path class="st3" d="M94.7,332l-19.5,9.4l-2,1l-41.1,19.7c-2.6,1.3-5.9-0.6-5.9-3.5v-54.7c0-1,0.5-1.9,1.3-2.6
	c0.3-0.3,0.6-0.5,1-0.8c1-0.6,2.4-0.7,3.6-0.3l62.3,24.7C97.5,326.1,97.8,330.5,94.7,332"/>
<path class="st4" d="M94.7,332l-19.5,9.4l-47.7-40.3c0.3-0.3,0.6-0.5,1-0.7c1-0.6,2.4-0.7,3.6-0.3l62.3,24.7
	C97.5,326.1,97.8,330.5,94.7,332"/>
</svg>
